<svg width="155" height="121" viewBox="0 0 155 121" fill="none" xmlns="http://www.w3.org/2000/svg">
<path d="M8.24658 33.5586V104.485C8.24658 107.435 11.7583 109.41 15.8997 111.679C20.1743 114.024 22.5356 113.806 24.5821 113.806L140.663 114.392C145.228 114.392 146.754 111.963 146.754 109.344V33.5586H8.24658Z" fill="#BDBDBD"/>
<path opacity="0.29" d="M146.754 109.335L136.727 101.29V33.5586L146.754 38.3041V109.335Z" fill="url(#paint0_linear_224_17)"/>
<path d="M146.754 38.9658L138.931 35.1373L126.688 13.2344H133.276C144.962 13.2344 146.754 18.4998 146.754 20.2959V38.9658Z" fill="#C62828"/>
<path d="M11.8066 34.3433V102.529C11.8066 105.081 14.4586 107.142 17.716 107.142H132.573C135.843 107.142 138.895 105.242 138.895 102.689V34.3433H11.8066Z" fill="#FAFAFA"/>
<path d="M138.931 35.1373H8.24658V17.5355C8.24658 15.1628 11.3587 13.2344 15.2095 13.2344H132.174C136.037 13.2344 139.161 15.1723 139.137 17.5639L138.931 35.1373Z" fill="#F44336"/>
<path d="M125.586 110.242C121.735 110.611 117.885 110.762 114.034 111.027C110.183 111.216 106.332 111.386 102.482 111.49C98.6308 111.641 94.78 111.67 90.9292 111.755L79.3769 111.84L67.8245 111.755C63.9737 111.67 60.123 111.632 56.2722 111.49C52.4214 111.386 48.5706 111.216 44.7198 111.027C40.869 110.762 37.0183 110.602 33.1675 110.242V110.053L79.3647 109.959L125.562 110.053V110.242H125.586Z" fill="#757575"/>
<path d="M51.4165 42.6147V54.0719H19.5688V100.629H82.7192V89.0296H129.631V42.6147H51.4165Z" fill="#B3E5FC"/>
<path d="M23.141 21.8367C25.1206 21.8367 26.7254 20.4401 26.7254 18.7172C26.7254 16.9943 25.1206 15.5977 23.141 15.5977C21.1614 15.5977 19.5566 16.9943 19.5566 18.7172C19.5566 20.4401 21.1614 21.8367 23.141 21.8367Z" fill="#AF1E1E"/>
<path d="M24.7998 16.1459C24.3033 15.333 23.9643 14.3215 23.9643 13.2344C23.9643 10.7104 25.6475 8.57397 27.6455 8.57397C29.6436 8.57397 31.3268 10.7104 31.3268 13.2344H36.7518C36.7518 8.06351 32.6709 3.84741 27.6576 3.84741C22.6443 3.84741 18.5635 8.05405 18.5635 13.2344C18.5635 15.0777 19.0842 16.7887 19.9682 18.2445C20.7795 19.5585 22.5111 20.1446 24.049 19.5112C25.3326 18.963 25.5021 17.2803 24.7998 16.1459Z" fill="#94D1E0"/>
<path d="M36.7522 13.2344C36.7522 10.0676 35.2143 7.26943 32.8893 5.56787C32.9135 5.62459 33.5795 6.97639 32.635 8.27146C31.6783 9.5949 29.6924 9.38693 29.6924 9.38693C30.6732 10.2377 31.3271 11.6557 31.3271 13.2344H36.7522Z" fill="#2F7889"/>
<path d="M43.0971 21.8367C45.0767 21.8367 46.6814 20.4401 46.6814 18.7172C46.6814 16.9943 45.0767 15.5977 43.0971 15.5977C41.1175 15.5977 39.5127 16.9943 39.5127 18.7172C39.5127 20.4401 41.1175 21.8367 43.0971 21.8367Z" fill="#AF1E1E"/>
<path d="M44.7563 16.1459C44.2599 15.333 43.9208 14.3215 43.9208 13.2344C43.9208 10.7104 45.604 8.57397 47.6021 8.57397C49.6001 8.57397 51.2833 10.7104 51.2833 13.2344H56.7083C56.7083 8.06351 52.6274 3.84741 47.6142 3.84741C42.6009 3.84741 38.52 8.05405 38.52 13.2344C38.52 15.0777 39.0407 16.7887 39.9247 18.2445C40.736 19.5585 42.4677 20.1446 44.0056 19.5112C45.2892 18.963 45.4587 17.2803 44.7563 16.1459Z" fill="#94D1E0"/>
<path d="M52.8453 5.56787C52.8695 5.62459 53.5355 6.97639 52.591 8.27146C51.6344 9.58545 49.6484 9.38693 49.6484 9.38693C50.6293 10.2377 51.2832 11.6557 51.2832 13.2344H56.7203C56.7203 10.0676 55.1703 7.26943 52.8453 5.56787Z" fill="#2F7889"/>
<path d="M63.0414 21.8367C65.021 21.8367 66.6258 20.4401 66.6258 18.7172C66.6258 16.9943 65.021 15.5977 63.0414 15.5977C61.0618 15.5977 59.457 16.9943 59.457 18.7172C59.457 20.4401 61.0618 21.8367 63.0414 21.8367Z" fill="#AF1E1E"/>
<path d="M64.7124 16.1459C64.2159 15.333 63.8769 14.3215 63.8769 13.2344C63.8769 10.7104 65.5601 8.57397 67.5581 8.57397C69.5562 8.57397 71.2394 10.7104 71.2394 13.2344H76.6644C76.6644 8.06351 72.5835 3.84741 67.5702 3.84741C62.5569 3.84741 58.4761 8.05405 58.4761 13.2344C58.4761 15.0777 58.9968 16.7887 59.8808 18.2445C60.6921 19.5585 62.4237 20.1446 63.9616 19.5112C65.2452 18.963 65.4147 17.2803 64.7124 16.1459Z" fill="#94D1E0"/>
<path d="M72.7896 5.56787C72.8139 5.62459 73.4799 6.97639 72.5354 8.27146C71.5787 9.5949 69.5928 9.38693 69.5928 9.38693C70.5736 10.2377 71.2275 11.6557 71.2275 13.2344H76.6889C76.701 10.0676 75.1268 7.26943 72.7896 5.56787Z" fill="#2F7889"/>
<path d="M82.9975 21.8367C84.9771 21.8367 86.5818 20.4401 86.5818 18.7172C86.5818 16.9943 84.9771 15.5977 82.9975 15.5977C81.0179 15.5977 79.4131 16.9943 79.4131 18.7172C79.4131 20.4401 81.0179 21.8367 82.9975 21.8367Z" fill="#AF1E1E"/>
<path d="M84.6689 16.1459C84.1725 15.333 83.8334 14.3215 83.8334 13.2344C83.8334 10.7104 85.5166 8.57397 87.5146 8.57397C89.5127 8.57397 91.1959 10.7104 91.1959 13.2344H96.6209C96.6209 8.06351 92.54 3.84741 87.5268 3.84741C82.5135 3.84741 78.4326 8.05405 78.4326 13.2344C78.4326 15.0777 78.9533 16.7887 79.8373 18.2445C80.6486 19.5585 82.3803 20.1446 83.9182 19.5112C85.2018 18.963 85.3592 17.2803 84.6689 16.1459Z" fill="#94D1E0"/>
<path d="M92.7457 5.56787C92.7699 5.62459 93.4359 6.97639 92.4914 8.27146C91.5348 9.5949 89.5488 9.38693 89.5488 9.38693C90.5297 10.2377 91.1836 11.6557 91.1836 13.2344H96.657C96.6691 10.0676 95.0828 7.26943 92.7457 5.56787Z" fill="#2F7889"/>
<path d="M102.954 21.8367C104.934 21.8367 106.538 20.4401 106.538 18.7172C106.538 16.9943 104.934 15.5977 102.954 15.5977C100.974 15.5977 99.3696 16.9943 99.3696 18.7172C99.3696 20.4401 100.974 21.8367 102.954 21.8367Z" fill="#AF1E1E"/>
<path d="M104.613 16.1459C104.116 15.333 103.777 14.3215 103.777 13.2344C103.777 10.7104 105.46 8.57397 107.458 8.57397C109.457 8.57397 111.14 10.7104 111.14 13.2344H116.565C116.565 8.06351 112.484 3.84741 107.471 3.84741C102.457 3.84741 98.3765 8.05405 98.3765 13.2344C98.3765 15.0777 98.8972 16.7887 99.7812 18.2445C100.592 19.5585 102.324 20.1446 103.862 19.5112C105.146 18.963 105.315 17.2803 104.613 16.1459Z" fill="#94D1E0"/>
<path d="M112.702 5.56787C112.726 5.62459 113.392 6.97639 112.447 8.27146C111.491 9.5949 109.505 9.38693 109.505 9.38693C110.486 10.2377 111.14 11.6557 111.14 13.2344H116.637C116.637 10.0676 115.027 7.26943 112.702 5.56787Z" fill="#2F7889"/>
<path d="M122.91 21.8367C124.89 21.8367 126.494 20.4401 126.494 18.7172C126.494 16.9943 124.89 15.5977 122.91 15.5977C120.93 15.5977 119.326 16.9943 119.326 18.7172C119.326 20.4401 120.93 21.8367 122.91 21.8367Z" fill="#AF1E1E"/>
<path d="M124.569 16.1459C124.073 15.333 123.734 14.3215 123.734 13.2344C123.734 10.7104 125.417 8.57397 127.415 8.57397C129.413 8.57397 131.096 10.7104 131.096 13.2344H136.521C136.521 8.06351 132.44 3.84741 127.427 3.84741C122.414 3.84741 118.333 8.05405 118.333 13.2344C118.333 15.0777 118.854 16.7887 119.738 18.2445C120.549 19.5585 122.281 20.1446 123.819 19.5112C125.102 18.963 125.272 17.2803 124.569 16.1459Z" fill="#94D1E0"/>
<path d="M136.594 13.4046C136.412 9.60442 134.838 7.16552 132.646 5.57739C132.67 5.63411 133.336 6.98591 132.392 8.28099C131.435 9.60442 129.449 9.39645 129.449 9.39645C130.43 10.2472 130.914 11.6652 130.914 13.2439H132.767C134.305 13.225 136.594 13.4046 136.594 13.4046Z" fill="#2F7889"/>
<path d="M20.1743 42.6525H129.631M20.1743 42.6525V100.628V42.6525ZM35.8075 42.6525V100.628V42.6525ZM51.4407 42.6525V100.628V42.6525ZM67.086 42.6525V100.628V42.6525ZM82.7192 42.6525V100.628V42.6525ZM98.3524 42.6525V100.628V42.6525ZM113.998 42.6525V100.628V42.6525ZM129.631 42.6525V100.628V42.6525ZM20.1743 100.628H129.631H20.1743ZM20.1743 89.0295H129.631H20.1743ZM20.1743 77.44H129.631H20.1743ZM20.1743 65.841H129.631H20.1743ZM20.1743 54.2514H129.631H20.1743Z" stroke="#1E88E5" stroke-miterlimit="10" stroke-linecap="square"/>
<path d="M125.55 46.6796C126.392 46.6796 127.075 46.1463 127.075 45.4885C127.075 44.8306 126.392 44.2974 125.55 44.2974C124.707 44.2974 124.024 44.8306 124.024 45.4885C124.024 46.1463 124.707 46.6796 125.55 46.6796Z" fill="#1E88E5"/>
<path d="M109.832 46.6796C110.675 46.6796 111.358 46.1463 111.358 45.4885C111.358 44.8306 110.675 44.2974 109.832 44.2974C108.989 44.2974 108.306 44.8306 108.306 45.4885C108.306 46.1463 108.989 46.6796 109.832 46.6796Z" fill="#1E88E5"/>
<path d="M94.1137 46.6796C94.9563 46.6796 95.6395 46.1463 95.6395 45.4885C95.6395 44.8306 94.9563 44.2974 94.1137 44.2974C93.271 44.2974 92.5879 44.8306 92.5879 45.4885C92.5879 46.1463 93.271 46.6796 94.1137 46.6796Z" fill="#1E88E5"/>
<path d="M78.3837 46.6796C79.2264 46.6796 79.9095 46.1463 79.9095 45.4885C79.9095 44.8306 79.2264 44.2974 78.3837 44.2974C77.541 44.2974 76.8579 44.8306 76.8579 45.4885C76.8579 46.1463 77.541 46.6796 78.3837 46.6796Z" fill="#1E88E5"/>
<path d="M62.6659 46.6796C63.5086 46.6796 64.1917 46.1463 64.1917 45.4885C64.1917 44.8306 63.5086 44.2974 62.6659 44.2974C61.8233 44.2974 61.1401 44.8306 61.1401 45.4885C61.1401 46.1463 61.8233 46.6796 62.6659 46.6796Z" fill="#1E88E5"/>
<path d="M46.9477 46.6796C47.7903 46.6796 48.4734 46.1463 48.4734 45.4885C48.4734 44.8306 47.7903 44.2974 46.9477 44.2974C46.105 44.2974 45.4219 44.8306 45.4219 45.4885C45.4219 46.1463 46.105 46.6796 46.9477 46.6796Z" fill="#1E88E5"/>
<path d="M31.2299 46.6796C32.0725 46.6796 32.7557 46.1463 32.7557 45.4885C32.7557 44.8306 32.0725 44.2974 31.2299 44.2974C30.3872 44.2974 29.7041 44.8306 29.7041 45.4885C29.7041 46.1463 30.3872 46.6796 31.2299 46.6796Z" fill="#1E88E5"/>
<path d="M125.55 58.2786C126.392 58.2786 127.075 57.7453 127.075 57.0875C127.075 56.4296 126.392 55.8964 125.55 55.8964C124.707 55.8964 124.024 56.4296 124.024 57.0875C124.024 57.7453 124.707 58.2786 125.55 58.2786Z" fill="#1E88E5"/>
<path d="M109.832 58.2786C110.675 58.2786 111.358 57.7453 111.358 57.0875C111.358 56.4296 110.675 55.8964 109.832 55.8964C108.989 55.8964 108.306 56.4296 108.306 57.0875C108.306 57.7453 108.989 58.2786 109.832 58.2786Z" fill="#1E88E5"/>
<path d="M94.1137 58.2786C94.9563 58.2786 95.6395 57.7453 95.6395 57.0875C95.6395 56.4296 94.9563 55.8964 94.1137 55.8964C93.271 55.8964 92.5879 56.4296 92.5879 57.0875C92.5879 57.7453 93.271 58.2786 94.1137 58.2786Z" fill="#1E88E5"/>
<path d="M78.3837 58.2786C79.2264 58.2786 79.9095 57.7453 79.9095 57.0875C79.9095 56.4296 79.2264 55.8964 78.3837 55.8964C77.541 55.8964 76.8579 56.4296 76.8579 57.0875C76.8579 57.7453 77.541 58.2786 78.3837 58.2786Z" fill="#1E88E5"/>
<path d="M62.6659 58.2786C63.5086 58.2786 64.1917 57.7453 64.1917 57.0875C64.1917 56.4296 63.5086 55.8964 62.6659 55.8964C61.8233 55.8964 61.1401 56.4296 61.1401 57.0875C61.1401 57.7453 61.8233 58.2786 62.6659 58.2786Z" fill="#1E88E5"/>
<path d="M46.9477 58.2786C47.7903 58.2786 48.4734 57.7453 48.4734 57.0875C48.4734 56.4296 47.7903 55.8964 46.9477 55.8964C46.105 55.8964 45.4219 56.4296 45.4219 57.0875C45.4219 57.7453 46.105 58.2786 46.9477 58.2786Z" fill="#1E88E5"/>
<path d="M31.2299 58.2786C32.0725 58.2786 32.7557 57.7453 32.7557 57.0875C32.7557 56.4296 32.0725 55.8964 31.2299 55.8964C30.3872 55.8964 29.7041 56.4296 29.7041 57.0875C29.7041 57.7453 30.3872 58.2786 31.2299 58.2786Z" fill="#1E88E5"/>
<path d="M125.55 69.868C126.392 69.868 127.075 69.3348 127.075 68.6769C127.075 68.0191 126.392 67.4858 125.55 67.4858C124.707 67.4858 124.024 68.0191 124.024 68.6769C124.024 69.3348 124.707 69.868 125.55 69.868Z" fill="#1E88E5"/>
<path d="M109.832 69.868C110.675 69.868 111.358 69.3348 111.358 68.6769C111.358 68.0191 110.675 67.4858 109.832 67.4858C108.989 67.4858 108.306 68.0191 108.306 68.6769C108.306 69.3348 108.989 69.868 109.832 69.868Z" fill="#1E88E5"/>
<path d="M94.1137 69.868C94.9563 69.868 95.6395 69.3348 95.6395 68.6769C95.6395 68.0191 94.9563 67.4858 94.1137 67.4858C93.271 67.4858 92.5879 68.0191 92.5879 68.6769C92.5879 69.3348 93.271 69.868 94.1137 69.868Z" fill="#1E88E5"/>
<path d="M78.3837 69.868C79.2264 69.868 79.9095 69.3348 79.9095 68.6769C79.9095 68.0191 79.2264 67.4858 78.3837 67.4858C77.541 67.4858 76.8579 68.0191 76.8579 68.6769C76.8579 69.3348 77.541 69.868 78.3837 69.868Z" fill="#1E88E5"/>
<path d="M62.6659 69.868C63.5086 69.868 64.1917 69.3348 64.1917 68.6769C64.1917 68.0191 63.5086 67.4858 62.6659 67.4858C61.8233 67.4858 61.1401 68.0191 61.1401 68.6769C61.1401 69.3348 61.8233 69.868 62.6659 69.868Z" fill="#1E88E5"/>
<path d="M46.9477 69.868C47.7903 69.868 48.4734 69.3348 48.4734 68.6769C48.4734 68.0191 47.7903 67.4858 46.9477 67.4858C46.105 67.4858 45.4219 68.0191 45.4219 68.6769C45.4219 69.3348 46.105 69.868 46.9477 69.868Z" fill="#1E88E5"/>
<path d="M31.2299 69.868C32.0725 69.868 32.7557 69.3348 32.7557 68.6769C32.7557 68.0191 32.0725 67.4858 31.2299 67.4858C30.3872 67.4858 29.7041 68.0191 29.7041 68.6769C29.7041 69.3348 30.3872 69.868 31.2299 69.868Z" fill="#1E88E5"/>
<path d="M125.55 93.0565C126.392 93.0565 127.075 92.5232 127.075 91.8654C127.075 91.2076 126.392 90.6743 125.55 90.6743C124.707 90.6743 124.024 91.2076 124.024 91.8654C124.024 92.5232 124.707 93.0565 125.55 93.0565Z" fill="#1E88E5"/>
<path d="M109.832 93.0565C110.675 93.0565 111.358 92.5232 111.358 91.8654C111.358 91.2076 110.675 90.6743 109.832 90.6743C108.989 90.6743 108.306 91.2076 108.306 91.8654C108.306 92.5232 108.989 93.0565 109.832 93.0565Z" fill="#1E88E5"/>
<path d="M94.1137 93.0565C94.9563 93.0565 95.6395 92.5232 95.6395 91.8654C95.6395 91.2076 94.9563 90.6743 94.1137 90.6743C93.271 90.6743 92.5879 91.2076 92.5879 91.8654C92.5879 92.5232 93.271 93.0565 94.1137 93.0565Z" fill="#1E88E5"/>
<path d="M78.3837 93.0565C79.2264 93.0565 79.9095 92.5232 79.9095 91.8654C79.9095 91.2076 79.2264 90.6743 78.3837 90.6743C77.541 90.6743 76.8579 91.2076 76.8579 91.8654C76.8579 92.5232 77.541 93.0565 78.3837 93.0565Z" fill="#1E88E5"/>
<path d="M62.6659 93.0565C63.5086 93.0565 64.1917 92.5232 64.1917 91.8654C64.1917 91.2076 63.5086 90.6743 62.6659 90.6743C61.8233 90.6743 61.1401 91.2076 61.1401 91.8654C61.1401 92.5232 61.8233 93.0565 62.6659 93.0565Z" fill="#1E88E5"/>
<path d="M46.9477 93.0565C47.7903 93.0565 48.4734 92.5232 48.4734 91.8654C48.4734 91.2076 47.7903 90.6743 46.9477 90.6743C46.105 90.6743 45.4219 91.2076 45.4219 91.8654C45.4219 92.5232 46.105 93.0565 46.9477 93.0565Z" fill="#1E88E5"/>
<path d="M31.2299 93.0565C32.0725 93.0565 32.7557 92.5232 32.7557 91.8654C32.7557 91.2076 32.0725 90.6743 31.2299 90.6743C30.3872 90.6743 29.7041 91.2076 29.7041 91.8654C29.7041 92.5232 30.3872 93.0565 31.2299 93.0565Z" fill="#1E88E5"/>
<path d="M125.55 81.467C126.392 81.467 127.075 80.9338 127.075 80.2759C127.075 79.6181 126.392 79.0848 125.55 79.0848C124.707 79.0848 124.024 79.6181 124.024 80.2759C124.024 80.9338 124.707 81.467 125.55 81.467Z" fill="#1E88E5"/>
<path d="M109.832 81.467C110.675 81.467 111.358 80.9338 111.358 80.2759C111.358 79.6181 110.675 79.0848 109.832 79.0848C108.989 79.0848 108.306 79.6181 108.306 80.2759C108.306 80.9338 108.989 81.467 109.832 81.467Z" fill="#1E88E5"/>
<path d="M94.1137 81.467C94.9563 81.467 95.6395 80.9338 95.6395 80.2759C95.6395 79.6181 94.9563 79.0848 94.1137 79.0848C93.271 79.0848 92.5879 79.6181 92.5879 80.2759C92.5879 80.9338 93.271 81.467 94.1137 81.467Z" fill="#1E88E5"/>
<path d="M78.3837 81.467C79.2264 81.467 79.9095 80.9338 79.9095 80.2759C79.9095 79.6181 79.2264 79.0848 78.3837 79.0848C77.541 79.0848 76.8579 79.6181 76.8579 80.2759C76.8579 80.9338 77.541 81.467 78.3837 81.467Z" fill="#1E88E5"/>
<path d="M62.6659 81.467C63.5086 81.467 64.1917 80.9338 64.1917 80.2759C64.1917 79.6181 63.5086 79.0848 62.6659 79.0848C61.8233 79.0848 61.1401 79.6181 61.1401 80.2759C61.1401 80.9338 61.8233 81.467 62.6659 81.467Z" fill="#1E88E5"/>
<path d="M46.9477 81.467C47.7903 81.467 48.4734 80.9338 48.4734 80.2759C48.4734 79.6181 47.7903 79.0848 46.9477 79.0848C46.105 79.0848 45.4219 79.6181 45.4219 80.2759C45.4219 80.9338 46.105 81.467 46.9477 81.467Z" fill="#1E88E5"/>
<path d="M31.2299 81.467C32.0725 81.467 32.7557 80.9338 32.7557 80.2759C32.7557 79.6181 32.0725 79.0848 31.2299 79.0848C30.3872 79.0848 29.7041 79.6181 29.7041 80.2759C29.7041 80.9338 30.3872 81.467 31.2299 81.467Z" fill="#1E88E5"/>
<defs>
<linearGradient id="paint0_linear_224_17" x1="141.74" y1="64.8777" x2="141.74" y2="105.262" gradientUnits="userSpaceOnUse">
<stop offset="0.337" stop-color="#616161"/>
<stop offset="1" stop-color="#616161" stop-opacity="0"/>
</linearGradient>
</defs>
</svg>