<?xml version="1.0" encoding="UTF-8" standalone="no"?>
<!-- Created with Inkscape (http://www.inkscape.org/) -->

<svg
   version="1.1"
   id="svg2"
   xml:space="preserve"
   width="189.67999"
   height="62.493332"
   viewBox="0 0 189.67999 62.493332"
   sodipodi:docname="SSM_logga.svg"
   inkscape:version="1.1 (c68e22c387, 2021-05-23)"
   xmlns:inkscape="http://www.inkscape.org/namespaces/inkscape"
   xmlns:sodipodi="http://sodipodi.sourceforge.net/DTD/sodipodi-0.dtd"
   xmlns="http://www.w3.org/2000/svg"
   xmlns:svg="http://www.w3.org/2000/svg"><defs
     id="defs6" /><sodipodi:namedview
     id="namedview4"
     pagecolor="#ffffff"
     bordercolor="#666666"
     borderopacity="1.0"
     inkscape:pageshadow="2"
     inkscape:pageopacity="0.0"
     inkscape:pagecheckerboard="true"
     showgrid="false"
     inkscape:zoom="5.6568543"
     inkscape:cx="92.365823"
     inkscape:cy="29.610096"
     inkscape:window-width="1920"
     inkscape:window-height="1111"
     inkscape:window-x="-9"
     inkscape:window-y="-9"
     inkscape:window-maximized="1"
     inkscape:current-layer="g8" /><g
     id="g8"
     inkscape:groupmode="layer"
     inkscape:label="ink_ext_XXXXXX"
     transform="matrix(1.3333333,0,0,-1.3333333,0,62.493333)"><g
       id="g10"
       transform="scale(0.1)"><path
         d="m 625.309,462.797 -28.137,-102.567 -2.77,-0.07 V 462.797 H 543.984 V 235.281 h 50.418 v 53.629 l 12.895,33.297 22.984,-86.926 h 52.672 l -40.973,123.184 35.293,104.332 h -51.964"
         style="fill:#231f20;fill-opacity:1;fill-rule:nonzero;stroke:none"
         id="path12" /><path
         d="M 767.621,5.03906 H 727.758 V 134.988 h -2.969 L 702.613,5.03906 H 670.637 L 647.207,136.055 h -2.965 V 5.03906 H 605.453 V 207.762 h 62.11 l 19.007,-90.926 17.942,90.926 h 63.109 V 5.03906"
         style="fill:#231f20;fill-opacity:1;fill-rule:nonzero;stroke:none"
         id="path14" /><path
         d="M 57.2695,0 C 21.6758,0 0,20.4766 0,45.0977 v 24.3242 h 41.2461 v -16.25 c 0,-7.8321 5.0937,-13.3985 14.2422,-13.3985 8.6758,0 12.9726,4.5821 12.9726,13.1954 0,16.6992 -14.25,26.3359 -35.6054,46.1523 -20.375,18.9649 -31.31644,38.7699 -31.31644,61.8629 0,27.61 19.33594,51.946 56.99614,51.946 31.0507,0 52.1408,-24.336 52.1408,-44.805 V 143.508 H 69.7422 v 17.965 c 0,7.101 -5.0781,11.652 -11.207,11.652 -5.8555,0 -12.1954,-4.551 -12.1954,-11.652 0,-16.426 5.836,-23.621 30.9883,-45.899 C 99.0156,96.0234 113.258,73.9844 113.258,51.9414 113.258,24.0625 93.4023,0 57.2695,0"
         style="fill:#231f20;fill-opacity:1;fill-rule:nonzero;stroke:none"
         id="path16" /><path
         d="m 535.957,0 c -35.605,0 -57.242,20.4766 -57.242,45.0977 v 24.3242 h 41.207 v -16.25 c 0,-7.8321 5.098,-13.3985 14.242,-13.3985 8.652,0 12.984,4.5821 12.984,13.1954 0,16.6992 -14.265,26.3359 -35.593,46.1523 -20.367,18.9649 -31.34,38.7699 -31.34,61.8629 0,27.61 19.336,51.946 57.008,51.946 31.019,0 52.156,-24.336 52.156,-44.805 v -24.617 h -40.934 v 17.965 c 0,7.101 -5.125,11.652 -11.222,11.652 -5.875,0 -12.203,-4.551 -12.203,-11.652 0,-16.426 5.843,-23.621 31.035,-45.899 C 577.66,96.0234 591.926,73.9844 591.926,51.9414 591.926,24.0625 572.102,0 535.957,0"
         style="fill:#231f20;fill-opacity:1;fill-rule:nonzero;stroke:none"
         id="path18" /><path
         d="m 905.445,0 c -35.597,0 -57.199,20.4766 -57.199,45.0977 v 24.3242 h 41.203 v -16.25 c 0,-7.8321 5.086,-13.3985 14.227,-13.3985 8.664,0 12.969,4.5821 12.969,13.1954 0,16.6992 -14.258,26.3359 -35.633,46.1523 -20.313,18.9649 -31.231,38.7699 -31.231,61.8629 0,27.61 19.324,51.946 56.895,51.946 31.113,0 52.195,-24.336 52.195,-44.805 v -24.617 h -40.957 v 17.965 c 0,7.101 -5.066,11.652 -11.238,11.652 -5.754,0 -12.141,-4.551 -12.141,-11.652 0,-16.426 5.871,-23.621 31.055,-45.899 C 947.223,96.0234 961.422,73.9844 961.422,51.9414 961.422,24.0625 941.605,0 905.445,0"
         style="fill:#231f20;fill-opacity:1;fill-rule:nonzero;stroke:none"
         id="path20" /><path
         d="m 1031.07,0 c -35.578,0 -57.277,20.4766 -57.277,45.0977 v 24.3242 h 41.217 v -16.25 c 0,-7.8321 5.11,-13.3985 14.29,-13.3985 8.62,0 12.96,4.5821 12.96,13.1954 0,16.6992 -14.25,26.3359 -35.65,46.1523 -20.344,18.9649 -31.262,38.7699 -31.262,61.8629 0,27.61 19.355,51.946 56.992,51.946 31.03,0 52.2,-24.336 52.2,-44.805 v -24.617 h -40.98 v 17.965 c 0,7.101 -5.13,11.652 -11.22,11.652 -5.86,0 -12.22,-4.551 -12.22,-11.652 0,-16.426 5.87,-23.621 31,-45.899 21.67,-19.5506 35.93,-41.5896 35.93,-63.6326 C 1087.05,24.0625 1067.19,0 1031.07,0"
         style="fill:#231f20;fill-opacity:1;fill-rule:nonzero;stroke:none"
         id="path22" /><path
         d="m 122.551,171.777 h 28.363 V 5.12891 h 46.828 V 171.777 h 28.367 v 35.996 H 122.551 v -35.996"
         style="fill:#231f20;fill-opacity:1;fill-rule:nonzero;stroke:none"
         id="path24" /><path
         d="m 1225.26,0 c -32.54,0 -57.02,24.3047 -57.02,44.8438 V 168.125 c 0,20.469 24.48,44.805 57.02,44.805 32.28,0 56.76,-24.336 56.76,-44.805 V 44.8438 C 1282.02,24.3047 1257.54,0 1225.26,0 Z m 0,173.125 c -5.36,0 -9.7,-3.254 -9.7,-8.605 V 48.3477 c 0,-5.293 4.34,-8.5743 9.7,-8.5743 5.07,0 9.41,3.2813 9.41,8.5743 V 164.52 c 0,5.351 -4.34,8.605 -9.41,8.605"
         style="fill:#231f20;fill-opacity:1;fill-rule:nonzero;stroke:none"
         id="path26" /><path
         d="M 262.719,5.12891 H 222.387 L 253.199,207.773 h 55.926 L 340.719,5.12891 H 298.324 L 294.547,34.2578 H 266.578 Z M 280.934,151.434 271.465,72.7148 h 19.187 l -7.476,78.7692 -2.242,-0.05"
         style="fill:#231f20;fill-opacity:1;fill-rule:nonzero;stroke:none"
         id="path28" /><path
         d="m 417.355,207.773 c 22.407,0 45.571,-10.421 45.571,-39.511 V 44.6484 c 0,-29.1718 -23.164,-39.51949 -45.571,-39.51949 H 354.773 V 207.773 Z M 410.73,43.3477 c 5.348,0 8.161,2.2851 8.161,8.0976 V 161.16 c 0,5.82 -2.813,8.117 -8.161,8.117 H 399.723 V 43.3477 h 11.007"
         style="fill:#231f20;fill-opacity:1;fill-rule:nonzero;stroke:none"
         id="path30" /><path
         d="m 787.418,5.12891 h 47.09 V 207.773 h -47.09 V 5.12891"
         style="fill:#231f20;fill-opacity:1;fill-rule:nonzero;stroke:none"
         id="path32" /><path
         d="M 1101.93,5.12891 H 1149 V 207.773 h -47.07 V 5.12891"
         style="fill:#231f20;fill-opacity:1;fill-rule:nonzero;stroke:none"
         id="path34" /><path
         d="m 1377.59,207.773 h 41.7 V 5.12891 h -40.94 L 1341.21,102.91 V 5.12891 h -41.78 V 207.773 h 42.8 l 35.36,-99.558 v 99.558"
         style="fill:#231f20;fill-opacity:1;fill-rule:nonzero;stroke:none"
         id="path36" /><path
         d="m 129.59,424.48 h 32.285 V 235.035 h 50.012 V 424.48 h 32.246 v 38.602 H 129.59 V 424.48"
         style="fill:#231f20;fill-opacity:1;fill-rule:nonzero;stroke:none"
         id="path38" /><path
         d="m 1043.56,277.457 h 44.74 V 234.801 H 991.305 V 462.66 h 52.255 V 277.457"
         style="fill:#231f20;fill-opacity:1;fill-rule:nonzero;stroke:none"
         id="path40" /><path
         d="m 772.633,462.797 v -96.481 h -28.84 v 96.481 H 693.398 V 235.281 h 50.395 v 87.442 h 28.84 v -87.442 h 51.863 v 227.516 h -51.863"
         style="fill:#231f20;fill-opacity:1;fill-rule:nonzero;stroke:none"
         id="path42" /><path
         d="m 908.18,229.379 c -36.028,0 -63.125,27.309 -63.125,50.387 v 138.523 c 0,23.027 27.097,50.363 63.125,50.363 35.8,0 62.871,-27.336 62.871,-50.363 V 279.766 c 0,-23.078 -27.071,-50.387 -62.871,-50.387 z m 0,196.715 c -5.891,0 -12.239,-4.367 -12.239,-10.348 V 282.34 c 0,-6 6.348,-10.543 12.239,-10.543 5.664,0 11.922,4.543 11.922,10.543 v 133.406 c 0,5.981 -6.258,10.348 -11.922,10.348"
         style="fill:#231f20;fill-opacity:1;fill-rule:nonzero;stroke:none"
         id="path44" /><path
         d="m 316.801,229.379 c -36.047,0 -63.113,27.309 -63.113,50.387 v 138.523 c 0,23.027 27.066,50.363 63.113,50.363 35.781,0 62.851,-27.336 62.851,-50.363 V 279.766 c 0,-23.078 -27.07,-50.387 -62.851,-50.387 z m 0,196.715 c -5.91,0 -12.235,-4.367 -12.235,-10.348 V 282.34 c 0,-6 6.325,-10.543 12.235,-10.543 5.66,0 11.914,4.543 11.914,10.543 v 133.406 c 0,5.981 -6.254,10.348 -11.914,10.348"
         style="fill:#231f20;fill-opacity:1;fill-rule:nonzero;stroke:none"
         id="path46" /><path
         d="m 524.258,319.258 v -39.492 c 0,-29.711 -27.078,-50.387 -62.84,-50.387 -36.074,0 -63.148,22.066 -63.148,50.387 V 419.75 c 0,26.914 27.074,48.902 63.148,48.902 39.141,0 62.84,-24.867 62.84,-48.902 v -40.824 l -50.938,-0.039 v 36.859 c 0,5.981 -6.273,10.348 -11.902,10.348 -5.926,0 -12.246,-4.367 -12.246,-10.348 V 282.34 c 0,-6 6.32,-10.543 12.246,-10.543 5.629,0 11.902,4.543 11.902,10.543 v 36.898 l 50.938,0.02"
         style="fill:#231f20;fill-opacity:1;fill-rule:nonzero;stroke:none"
         id="path48" /><path
         d="m 1422.64,286.117 c 0,31.133 -21.43,55.66 -44.56,76.512 -26.84,23.746 -31.01,30.191 -31.01,50.328 0,7.617 8.49,13.117 14.72,13.117 7.39,0 14.58,-5.215 14.58,-13.117 v -20.453 h 43.53 v 26.289 c 0,22.426 -23.79,49.82 -57.91,49.82 -40.21,0 -62.76,-26.718 -62.76,-56.175 0,-24.629 10.06,-47.258 31.76,-67.532 22.85,-21.129 44.09,-36.816 44.09,-56.586 0,-9.172 -4.73,-16.418 -16.42,-16.418 -9.82,0 -17.24,7.231 -17.24,15.598 v 18.219 h -43.84 v -26.871 c 0,-26.25 23.3,-49.371 62.56,-49.371 37.09,0 62.5,22.464 62.5,56.64"
         style="fill:#231f20;fill-opacity:1;fill-rule:nonzero;stroke:none"
         id="path50" /><path
         d="m 125.055,286.117 c 0,31.133 -21.477,55.66 -44.5823,76.512 -26.8633,23.746 -31.043,30.191 -31.043,50.328 0,7.617 8.4961,13.117 14.7539,13.117 7.3906,0 14.5781,-5.215 14.5781,-13.117 v -20.453 h 43.5043 v 26.289 c 0,22.426 -23.7387,49.82 -57.8949,49.82 -40.2031,0 -62.75391,-26.718 -62.75391,-56.175 0,-24.629 10.07421,-47.258 31.74611,-67.532 22.8437,-21.129 44.1015,-36.816 44.1015,-56.586 0,-9.172 -4.7656,-16.418 -16.4257,-16.418 -9.7774,0 -17.25,7.231 -17.25,15.598 v 18.219 H 0 v -26.871 c 0,-26.25 23.2539,-49.371 62.5195,-49.371 37.1133,0 62.5355,22.464 62.5355,56.64"
         style="fill:#231f20;fill-opacity:1;fill-rule:nonzero;stroke:none"
         id="path52" /><path
         d="m 1283.86,236.023 h -44.4 v 144.86 h -3.31 l -24.76,-144.86 h -35.67 l -26.1,146.075 h -3.31 V 236.023 h -43.25 v 225.965 h 69.25 l 21.21,-101.328 20.01,101.328 h 70.33 V 236.023"
         style="fill:#231f20;fill-opacity:1;fill-rule:nonzero;stroke:none"
         id="path54" /></g></g></svg>
